<svg data-v-0dd9719b="" version="1.0" xmlns="http://www.w3.org/2000/svg" xmlns:xlink="http://www.w3.org/1999/xlink" width="100%" height="100%" viewBox="0 0 340.000000 250.000000" preserveAspectRatio="xMidYMid meet" color-interpolation-filters="sRGB" style="margin: auto;"> <rect data-v-0dd9719b="" x="0" y="0" width="100%" height="100%" fill="#fff" fill-opacity="1" class="background"></rect> <rect data-v-0dd9719b="" x="0" y="0" width="100%" height="100%" fill="url(#watermark)" fill-opacity="1" class="watermarklayer"></rect> <g data-v-0dd9719b="" fill="#9b0660" class="icon-text-wrapper icon-svg-group iconsvg" transform="translate(47.36000061035156,95)"><g class="iconsvg-imagesvg" transform="translate(0,0)"><g><rect fill="#9b0660" fill-opacity="0" stroke-width="2" x="0" y="0" width="60" height="60" class="image-rect"></rect> <svg x="0" y="0" width="60" height="60" filtersec="colorsb1876037867" class="image-svg-svg primary" style="overflow: visible;"><svg xmlns="http://www.w3.org/2000/svg" viewBox="0 0 48.189998626708984 48.189998626708984"><g><g fill="#9b0660"><path d="M30.83 14.52q0 2.37 9.92 6.15a16.07 16.07 0 0 1 7.44 5.21V13.7a8.93 8.93 0 0 0-1-.48l-1.67-.64-2.7-.86a27.14 27.14 0 0 0-5.5-.54l-2.37.21a5.84 5.84 0 0 0-2.15.54 2.53 2.53 0 0 0-1.97 2.59z"></path><path d="M17.78 36a26.73 26.73 0 0 0 3 1.56 26.47 26.47 0 0 0 3.4 1.24l3.56.54 3.56.22H33a1.85 1.85 0 0 1 .65-.11 2.63 2.63 0 0 0 1.6-.45 3.07 3.07 0 0 0 1.83-3q0-3.13-9.92-6.91t-9.92-13.71q0-8.19 6.25-12.4A20.55 20.55 0 0 1 29.31.56 27.11 27.11 0 0 1 32 0H0v48.19h17.78z"></path></g></g></svg></svg> <!----></g></g> <g transform="translate(67,5.493747711181641)"><g data-gra="path-name" fill-rule="" class="tp-name iconsvg-namesvg" transform="translate(0,0)"><g transform="scale(1)"><g><path d="M27.11-1.41L27.11-13.57 13.25-13.57 13.25-1.41 27.11-1.41ZM1.55-26.68L27.53-26.68 30.16-29.95Q33.08-27.7 34.88-26.19L34.88-26.19Q34.77-25.63 33.86-25.63L33.86-25.63 17.68-25.63Q15.71-19.97 12.06-15.22L12.06-15.22 13.68-14.59 26.72-14.59 28.76-16.91 33.05-13.57Q32.41-12.94 31.43-12.73L31.43-12.73 31.43 1.83Q31.36 2.07 30.08 2.51 28.79 2.95 27.81 2.95L27.81 2.95 27.11 2.95 27.11-0.35 13.25-0.35 13.25 1.93Q13.25 2.11 12.87 2.37 12.48 2.64 11.64 2.9 10.79 3.16 9.81 3.16L9.81 3.16 9 3.16 9-11.67Q5.38-7.95 1.09-5.48L1.09-5.48 0.77-5.8Q4.99-9.7 8.09-15.06 11.18-20.43 12.34-25.63L12.34-25.63 1.83-25.63 1.55-26.68ZM64.97-18.56L64.97-18.56 69.64-15.29Q69.33-14.77 68.31-15.01L68.31-15.01Q65.07-12.9 60.61-11.07L60.61-11.07Q64.48-6.01 70.98-3.2L70.98-3.2 70.88-2.81Q68.13-2.53 66.9 0.56L66.9 0.56Q62.37-2.67 59.71-7.4 57.06-12.13 55.93-19.48L55.93-19.48 55.65-19.48Q54.07-18.04 51.4-16.52L51.4-16.52Q54.74-14.03 56.36-10.21 57.97-6.4 57.81-3.2 57.66 0 56.32 1.65L56.32 1.65Q55.02 3.27 51.01 3.2L51.01 3.2Q50.98 1.51 50.13 0.56L50.13 0.56Q49.32-0.25 47.11-0.77L47.11-0.77 47.07-1.2Q50.1-0.91 51.86-0.91L51.86-0.91Q52.66-0.91 52.88-1.3L52.88-1.3Q53.75-2.64 53.75-5.7L53.75-5.7Q46.41-1.27 37.2 0.35L37.2 0.35 36.95-0.14Q41.63-1.69 46.04-4.52 50.45-7.35 53.09-10.55L53.09-10.55Q53.05-10.69 52.96-11.04 52.88-11.39 52.84-11.57L52.84-11.57Q49.89-9.77 45.98-8.21 42.08-6.64 38.32-5.77L38.32-5.77 38.07-6.22Q41.63-7.73 45.26-10.34 48.9-12.94 51.08-15.47L51.08-15.47Q51.01-15.57 50.87-15.8 50.73-16.03 50.66-16.14L50.66-16.14Q45.63-13.5 38.6-11.85L38.6-11.85 38.39-12.3Q44.75-14.84 49.75-19.48L49.75-19.48 42.93-19.48 42.61-20.5 59.84-20.5 62.05-23.27Q62.89-22.68 63.88-21.9L63.88-21.9Q64.58-23.55 64.93-24.71L64.93-24.71 43.07-24.71Q43.21-22.85 42.63-21.53 42.05-20.21 41.03-19.58L41.03-19.58Q40.15-18.91 39.06-19.16 37.97-19.41 37.58-20.43L37.58-20.43Q36.98-22.32 39.06-23.34L39.06-23.34Q40.15-23.98 40.96-25.37 41.77-26.75 41.7-28.3L41.7-28.3 42.19-28.3Q42.79-26.75 42.96-25.73L42.96-25.73 51.79-25.73 51.79-30.59 57.45-30.16Q57.34-29.32 56.11-29.11L56.11-29.11 56.11-25.73 64.86-25.73 67.04-27.91 70.73-24.33Q70.42-24.01 69.33-23.91L69.33-23.91Q67.57-22.5 64.79-21.13L64.79-21.13Q65-20.95 65.43-20.58 65.85-20.21 66.06-20.04L66.06-20.04Q65.95-19.48 65.07-19.48L65.07-19.48 56.6-19.48Q57.76-15.15 59.91-12.09L59.91-12.09Q63.04-15.33 64.97-18.56ZM105.96-23.34L80.68-23.34 80.68-16.24Q80.68-14.45 80.61-13.08 80.54-11.71 80.33-9.79 80.12-7.88 79.61-6.28 79.1-4.68 78.35-2.95 77.59-1.23 76.32 0.32 75.06 1.86 73.41 3.13L73.41 3.13 73.05 2.85Q74.18 0.81 74.92-1.56 75.66-3.94 75.97-6.59 76.29-9.25 76.38-11.3 76.46-13.36 76.46-16.21L76.46-16.21 76.46-26.09 81.32-24.33 88.88-24.33 88.88-30.55 94.46-30.13Q94.36-29.29 93.13-29.07L93.13-29.07 93.13-24.33 100.65-24.33 102.94-27.39Q105.43-25.31 106.95-23.91L106.95-23.91Q106.8-23.34 105.96-23.34L105.96-23.34ZM94.78 1.02L100.79 1.02 103.01-2.04Q105.43 0.07 106.88 1.48L106.88 1.48Q106.77 2.04 105.89 2.04L105.89 2.04 78.89 2.04 78.57 1.02 90.56 1.02 90.56-11.57 81.91-11.57 81.6-12.55 90.56-12.55 90.56-22.18 96.08-21.62Q95.98-20.81 94.78-20.6L94.78-20.6 94.78-12.55 99.25-12.55 101.43-15.5Q103.82-13.5 105.26-12.13L105.26-12.13Q105.12-11.57 104.27-11.57L104.27-11.57 94.78-11.57 94.78 1.02ZM118.16-28.9L118.16-28.9 118.62-28.86Q119.32-25.63 118.86-23.55 118.41-21.48 117.14-20.39L117.14-20.39Q116.33-19.62 115.05-19.79 113.77-19.97 113.34-21.02L113.34-21.02Q112.96-21.94 113.34-22.78 113.73-23.63 114.61-24.15L114.61-24.15Q115.77-24.82 116.86-26.17 117.95-27.53 118.16-28.9ZM121.99-12.2L121.99-12.2 126.39-10.37Q126.18-9.74 125.09-9.84L125.09-9.84Q123.08-7.35 120.52-5.03L120.52-5.03Q123.71-4.04 124.31-2.07L124.31-2.07Q124.73-0.67 123.71 0.11L123.71 0.11Q122.66 0.95 121.25 0.04L121.25 0.04Q120.8-2.18 118.44-4.61L118.44-4.61Q116.4 0.56 109.23 3.23L109.23 3.23 108.88 2.74Q110.6 1.72 111.83 0.56 113.06-0.6 113.82-1.95 114.57-3.3 115.03-4.57 115.49-5.84 115.66-7.52 115.84-9.21 115.91-10.56 115.98-11.92 115.98-13.96L115.98-13.96Q115.98-14.52 115.98-14.8L115.98-14.8 120.9-14.38Q120.76-13.61 119.78-13.46L119.78-13.46Q119.57-7.98 118.76-5.48L118.76-5.48Q119.32-5.38 119.92-5.2L119.92-5.2Q121.29-8.96 121.99-12.2ZM113.34-11.64L113.34-11.64 113.91-11.64Q114.57-8.79 114.19-6.96 113.8-5.13 112.71-4.22L112.71-4.22Q112.08-3.59 111.13-3.64 110.18-3.69 109.79-4.43L109.79-4.43Q109.51-5.1 109.81-5.77 110.11-6.43 110.81-6.86L110.81-6.86Q111.73-7.52 112.52-8.89 113.31-10.27 113.34-11.64ZM127.9-12.09L127.9-12.09 128.46-12.09Q129.23-9.11 128.81-7.21 128.39-5.31 127.2-4.36L127.2-4.36Q126.49-3.76 125.51-3.85 124.52-3.94 124.17-4.75L124.17-4.75Q123.54-6.22 125.19-7.24L125.19-7.24Q126.25-7.91 127.05-9.26 127.86-10.62 127.9-12.09ZM143.37-17.58L143.37-17.58 143.33-17.12Q141.79-16.8 140.94-16 140.1-15.19 139.92-13.54L139.92-13.54Q137.92-14.13 135.7-15.19L135.7-15.19Q135.49-14.48 134.54-14.34L134.54-14.34Q134.82-9.25 135.98-6.61L135.98-6.61Q137.5-9.81 138.2-12.23L138.2-12.23 142.77-9.84Q142.42-9.14 141.43-9.39L141.43-9.39Q139.61-7.73 136.44-5.63L136.44-5.63Q138.3-2.11 142.95-0.7L142.95-0.7 142.91-0.28Q140.27 0.32 139.99 3.16L139.99 3.16Q137.29 1.79 135.98-1.18 134.68-4.15 134.23-9L134.23-9Q133.98-6.71 133.35-5.06 132.71-3.41 131.36-1.81 130.01-0.21 127.62 1.02 125.23 2.25 121.68 3.2L121.68 3.2 121.39 2.71Q123.08 2 124.42 1.21 125.75 0.42 126.7-0.53 127.65-1.48 128.34-2.34 129.02-3.2 129.45-4.43 129.87-5.66 130.11-6.63 130.36-7.59 130.45-9.12 130.54-10.65 130.57-11.76 130.61-12.87 130.61-14.73L130.61-14.73Q130.61-15.36 130.61-15.68L130.61-15.68 135.53-15.26Q129.34-18.49 127.58-25.35L127.58-25.35Q127.27-23.66 126.69-22.34 126.11-21.02 124.82-19.63 123.54-18.25 121.61-17.16 119.67-16.07 116.61-15.05 113.55-14.03 109.44-13.22L109.44-13.22 109.2-13.75Q111.8-14.52 113.87-15.36 115.95-16.21 117.4-17.16 118.86-18.11 119.94-19 121.01-19.9 121.66-21.06 122.31-22.22 122.71-23.17 123.12-24.12 123.29-25.51 123.47-26.89 123.52-27.93 123.57-28.97 123.61-30.55L123.61-30.55Q123.61-30.73 123.61-30.83L123.61-30.83 129.2-30.3Q129.09-29.53 127.97-29.43L127.97-29.43Q127.93-28.44 127.79-27.11L127.79-27.11Q128.64-24.19 130.99-22.22L130.99-22.22Q133.14-25.28 135.04-29.04L135.04-29.04 139.57-25.7Q139.11-25.07 138.02-25.45L138.02-25.45Q135.21-23.13 132.05-21.41L132.05-21.41Q135.81-18.91 143.37-17.58ZM147.8-11.07L147.8-11.07 145.44-15.43Q145.72-15.47 150.15-16.17L150.15-16.17 150.15-22.89 146-22.89 145.72-23.94 150.15-23.94 150.15-30.2 155.43-29.78Q155.32-28.93 154.05-28.76L154.05-28.76 154.05-23.94 154.16-23.94 155.95-26.79Q157.92-24.86 159.01-23.52L159.01-23.52Q160.77-26.89 161.58-30.62L161.58-30.62 167.03-28.93Q166.78-28.23 165.62-28.23L165.62-28.23Q165.13-27.32 164.43-26.37L164.43-26.37 172.58-26.37 174.66-28.3 178.31-25.31Q177.82-24.82 176.87-24.68L176.87-24.68Q176.7-19.3 176.12-16.49 175.54-13.68 174.34-12.69L174.34-12.69Q172.9-11.5 169.88-11.5L169.88-11.5Q169.95-13.39 169.17-14.1L169.17-14.1Q168.19-14.98 165.62-15.43L165.62-15.43 165.62-15.96Q170.26-15.64 170.47-15.64L170.47-15.64Q171.25-15.64 171.63-16L171.63-16Q172.62-16.88 172.93-25.31L172.93-25.31 163.65-25.31Q160.77-21.76 157.46-19.97L157.46-19.97 157.04-20.36Q158.06-21.69 158.77-23.03L158.77-23.03Q158.59-22.89 158.1-22.89L158.1-22.89 154.05-22.89 154.05-16.84Q154.2-16.88 158.84-17.75L158.84-17.75 158.91-17.3Q155.46-15.22 148.68-11.99L148.68-11.99Q148.39-11.25 147.8-11.07ZM160.98-14.45L160.98-14.45 159.08-18.39Q161.75-18.53 171.04-19.51L171.04-19.51 171.07-19.05Q166.22-16.88 161.96-15.22L161.96-15.22Q161.65-14.55 160.98-14.45ZM160.95-22.29L165.69-22.29 167.52-24.5Q169.52-22.99 170.79-21.83L170.79-21.83Q170.68-21.23 169.84-21.23L169.84-21.23 161.23-21.23 160.95-22.29ZM167.13 1.34L172.02 1.34 174.13-1.27Q176.55 0.49 178 1.76L178 1.76Q177.82 2.36 177.05 2.36L177.05 2.36 146.53 2.36 146.21 1.34 154.51 1.34Q154.09 1.2 153.53 0.7L153.53 0.7Q153.67-1.3 152.58-3.09L152.58-3.09 152.89-3.27Q156.8-2.6 157.29-0.74L157.29-0.74Q157.61 0.39 156.55 1.09L156.55 1.09Q156.34 1.23 156.09 1.34L156.09 1.34 159.93 1.34 159.93-3.38 150.33-3.38 150.05-4.39 159.93-4.39 159.93-6.61 155.85-6.61 155.57-7.63 163.27-7.63 164.92-9.46Q166.82-8.23 168.08-7.21L168.08-7.21Q167.98-6.61 167.13-6.61L167.13-6.61 163.9-6.61 163.9-4.39 169.17-4.39 170.89-6.47Q172.9-5.06 174.16-3.97L174.16-3.97Q174.06-3.38 173.21-3.38L173.21-3.38 163.9-3.38 163.9 1.34 166.15 1.34Q167.06-1.44 167.45-3.38L167.45-3.38 172.55-2.67Q172.37-1.83 171.21-1.79L171.21-1.79Q170.02-0.7 167.13 1.34L167.13 1.34ZM159.33-14.94L159.33-14.94 164.88-13.22Q164.71-12.52 163.13-12.38L163.13-12.38Q169.35-9.67 179.05-9.67L179.05-9.67 179.02-9.07Q177.93-8.68 177.33-7.59 176.73-6.5 176.63-5.17L176.63-5.17Q167.2-7.17 162.6-12.02L162.6-12.02Q159.86-9.81 155.06-7.63 150.26-5.45 145.13-4.5L145.13-4.5 145.02-4.96Q149.48-6.61 153.51-9.44 157.54-12.27 159.33-14.94Z" transform="translate(-0.7699999809265137, 30.829999923706055)"></path></g> <!----> <!----> <!----> <!----> <!----> <!----> <!----></g></g> <g data-gra="path-slogan" fill-rule="" class="tp-slogan iconsvg-slogansvg" fill="#9b0660" transform="translate(5,40.060001373291016)"><rect x="0" height="1" y="3.9750003814697266" width="12.46417236328125"></rect> <rect height="1" y="3.9750003814697266" width="12.46417236328125" x="155.81582641601562"></rect> <g transform="translate(15.46417236328125,0)"><g transform="scale(1)"><path d="M7.17-6.09L7.17-6.09L6.09-6.09Q6-7.73 3.94-7.83L3.94-7.83Q2.02-7.78 2.02-6.33L2.02-6.33Q2.02-5.39 3.05-5.25L3.05-5.25L5.48-4.69Q7.41-4.22 7.41-2.34L7.41-2.34Q7.36 0.05 4.03 0.14L4.03 0.14Q2.20 0.14 1.45-0.61L1.45-0.61Q0.52-1.31 0.56-2.77L0.56-2.77L1.69-2.77Q1.73-0.80 4.03-0.75L4.03-0.75Q6.28-0.80 6.33-2.20L6.33-2.20Q6.52-3.38 4.45-3.75L4.45-3.75L2.67-4.13Q0.84-4.64 0.84-6.19L0.84-6.19Q0.98-8.72 3.84-8.81L3.84-8.81Q7.08-8.81 7.17-6.09ZM10.03-5.06L14.53-5.06L14.53-8.58L15.70-8.58L15.70 0L14.53 0L14.53-3.98L10.03-3.98L10.03 0L8.86 0L8.86-8.58L10.03-8.58L10.03-5.06ZM17.67-8.58L18.84-8.58L18.84 0L17.67 0L17.67-8.58ZM20.11-1.92L20.11-2.77L21.19-2.77L21.19-2.16Q21.19-0.75 22.50-0.75L22.50-0.75Q23.86-0.75 23.86-2.25L23.86-2.25L23.86-8.58L25.03-8.58L25.03-2.30Q24.98 0.09 22.55 0.14L22.55 0.14Q20.25 0.09 20.11-1.92L20.11-1.92ZM27-8.58L28.17-8.58L28.17 0L27 0L27-8.58ZM35.81 0L34.97-2.48L31.50-2.48L30.61 0L29.44 0L32.67-8.58L33.98-8.58L37.08 0L35.81 0ZM33.23-7.31L31.88-3.52L34.55-3.52L33.28-7.31L33.23-7.31ZM38.95-1.03L44.25-1.03L44.25 0L37.50 0L37.50-0.94L42.75-7.59L37.88-7.59L37.88-8.58L44.25-8.58L44.25-7.59L38.95-1.03ZM46.55-5.06L51.05-5.06L51.05-8.58L52.22-8.58L52.22 0L51.05 0L51.05-3.98L46.55-3.98L46.55 0L45.38 0L45.38-8.58L46.55-8.58L46.55-5.06ZM59.67-3.19L59.67-8.58L60.84-8.58L60.84-3.05Q60.70 0.05 57.33 0.14L57.33 0.14Q54.19 0.05 54.05-2.86L54.05-2.86L54.05-8.58L55.22-8.58L55.22-3.19Q55.27-0.84 57.38-0.80L57.38-0.80Q59.67-0.84 59.67-3.19L59.67-3.19ZM68.30 0L67.45-2.48L63.98-2.48L63.09 0L61.92 0L65.16-8.58L66.47-8.58L69.56 0L68.30 0ZM65.72-7.31L64.36-3.52L67.03-3.52L65.77-7.31L65.72-7.31ZM72-8.58L76.31-1.64L76.31-8.58L77.44-8.58L77.44 0L76.13 0L71.77-6.94L71.72-6.94L71.72 0L70.59 0L70.59-8.58L72-8.58ZM85.64-3.61L83.02-3.61L83.02-4.59L86.77-4.59L86.77 0L86.02 0L85.73-1.08Q84.75 0.09 82.92 0.14L82.92 0.14Q81.19 0.14 80.25-0.75L80.25-0.75Q78.84-2.06 78.89-4.36L78.89-4.36Q79.22-8.63 82.97-8.81L82.97-8.81Q86.16-8.63 86.63-6L86.63-6L85.50-6Q85.03-7.78 82.92-7.83L82.92-7.83Q80.25-7.64 80.11-4.31L80.11-4.31Q80.11-0.75 82.97-0.75L82.97-0.75Q84-0.75 84.75-1.31L84.75-1.31Q85.69-2.06 85.64-3.61L85.64-3.61ZM98.81-8.58L95.58-3.47L95.58 0L94.41 0L94.41-3.47L91.17-8.58L92.53-8.58L94.97-4.45L97.45-8.58L98.81-8.58ZM105.52 0L104.67-2.48L101.20-2.48L100.31 0L99.14 0L102.38-8.58L103.69-8.58L106.78 0L105.52 0ZM102.94-7.31L101.58-3.52L104.25-3.52L102.98-7.31L102.94-7.31ZM109.22-8.58L113.53-1.64L113.53-8.58L114.66-8.58L114.66 0L113.34 0L108.98-6.94L108.94-6.94L108.94 0L107.81 0L107.81-8.58L109.22-8.58ZM115.73-1.92L115.73-2.77L116.81-2.77L116.81-2.16Q116.81-0.75 118.13-0.75L118.13-0.75Q119.48-0.75 119.48-2.25L119.48-2.25L119.48-8.58L120.66-8.58L120.66-2.30Q120.61 0.09 118.17 0.14L118.17 0.14Q115.88 0.09 115.73-1.92L115.73-1.92ZM128.11-3.19L128.11-8.58L129.28-8.58L129.28-3.05Q129.14 0.05 125.77 0.14L125.77 0.14Q122.63 0.05 122.48-2.86L122.48-2.86L122.48-8.58L123.66-8.58L123.66-3.19Q123.70-0.84 125.81-0.80L125.81-0.80Q128.11-0.84 128.11-3.19L128.11-3.19ZM132.47-8.58L136.78-1.64L136.78-8.58L137.91-8.58L137.91 0L136.59 0L132.23-6.94L132.19-6.94L132.19 0L131.06 0L131.06-8.58L132.47-8.58Z" transform="translate(-0.5602678571428572, 8.8125)"></path></g></g></g></g></g><defs v-gra="od"></defs></svg>